<svg width="40" height="36" viewBox="0 0 40 36" fill="none" xmlns="http://www.w3.org/2000/svg">
<path d="M35.3125 7.03125V0H4.6875C2.10281 0 0 2.10281 0 4.6875V29.2969C0 32.5277 2.62852 35.1562 5.85938 35.1562H40V7.03125H35.3125ZM4.6875 2.34375H32.9688V7.03125H4.6875C3.39516 7.03125 2.34375 5.97984 2.34375 4.6875C2.34375 3.39516 3.39516 2.34375 4.6875 2.34375ZM37.6562 25.7812H31.7969C29.8584 25.7812 28.2812 24.2041 28.2812 22.2656C28.2812 20.3271 29.8584 18.75 31.7969 18.75H37.6562V25.7812ZM37.6562 16.4062H31.7969C28.566 16.4062 25.9375 19.0348 25.9375 22.2656C25.9375 25.4965 28.566 28.125 31.7969 28.125H37.6562V32.8125H5.85938C3.92086 32.8125 2.34375 31.2354 2.34375 29.2969V8.74437C3.03383 9.14461 3.83398 9.375 4.6875 9.375C6.40219 9.375 35.1272 9.375 37.6562 9.375V16.4062Z" fill="black"/>
<path d="M32.9688 21.0938H30.625V23.4375H32.9688V21.0938Z" fill="black"/>
</svg>
