<svg width="35" height="38" viewBox="0 0 35 38" fill="none" xmlns="http://www.w3.org/2000/svg">
<path d="M34.1192 29.4451C33.7954 28.9363 23.3858 12.5745 23.0651 12.0703V6.67969C24.9062 6.67969 26.4041 5.18143 26.4041 3.33984C26.4041 1.49825 24.9063 0 23.0651 0H11.9349C10.0938 0 8.59586 1.49825 8.59586 3.33984C8.59586 5.18143 10.0938 6.67969 11.9349 6.67969V12.0703L0.880877 29.4451C-1.47946 33.1552 1.18013 38 5.57595 38H29.4241C33.8206 38 36.4792 33.1546 34.1192 29.4451ZM13.987 12.9922C14.1006 12.8136 14.161 12.6063 14.161 12.3945V6.67969C14.7757 6.67969 15.274 6.18123 15.274 5.56641C15.274 4.95158 14.7757 4.45312 14.161 4.45312H11.935C11.3213 4.45312 10.822 3.95371 10.822 3.33984C10.822 2.72598 11.3213 2.22656 11.935 2.22656H23.0651C23.6789 2.22656 24.1782 2.72598 24.1782 3.33984C24.1782 3.95371 23.6789 4.45312 23.0651 4.45312H20.8391C20.2244 4.45312 19.7261 4.95158 19.7261 5.56641C19.7261 6.18123 20.2244 6.67969 20.8391 6.67969V12.3945C20.8391 12.6063 20.8994 12.8136 21.0131 12.9922L24.0393 17.7487C21.4492 17.1944 18.6937 17.6824 16.3957 19.2149L12.9178 21.5341C11.3751 22.5628 9.5518 22.9984 7.74841 22.7983L13.987 12.9922ZM29.4241 35.7734H5.57595C2.9381 35.7734 1.34285 32.8662 2.75891 30.6405L6.4513 24.8368C7.16549 24.9942 7.88761 25.0734 8.60662 25.0734C10.5571 25.0734 12.4828 24.5 14.1523 23.3867L17.6302 21.0675C20.187 19.3626 23.471 19.3187 26.0658 20.9344L32.241 30.6405C33.6574 32.8665 32.0616 35.7734 29.4241 35.7734Z" fill="black"/>
<path d="M10.8219 26.8672C8.98076 26.8672 7.48286 28.3654 7.48286 30.207C7.48286 32.0486 8.98076 33.5469 10.8219 33.5469C12.6631 33.5469 14.161 32.0486 14.161 30.207C14.161 28.3654 12.6631 26.8672 10.8219 26.8672ZM10.8219 31.3203C10.2082 31.3203 9.7089 30.8209 9.7089 30.207C9.7089 29.5932 10.2082 29.0938 10.8219 29.0938C11.4356 29.0938 11.9349 29.5932 11.9349 30.207C11.9349 30.8209 11.4357 31.3203 10.8219 31.3203Z" fill="black"/>
<path d="M21.9521 22.4141C20.1109 22.4141 18.613 23.9123 18.613 25.7539C18.613 27.5955 20.1109 29.0938 21.9521 29.0938C23.7932 29.0938 25.2911 27.5955 25.2911 25.7539C25.2911 23.9123 23.7933 22.4141 21.9521 22.4141ZM21.9521 26.8672C21.3384 26.8672 20.8391 26.3678 20.8391 25.7539C20.8391 25.14 21.3384 24.6406 21.9521 24.6406C22.5658 24.6406 23.0651 25.14 23.0651 25.7539C23.0651 26.3678 22.5659 26.8672 21.9521 26.8672Z" fill="black"/>
<path d="M17.5 31.3203C18.1147 31.3203 18.613 30.8219 18.613 30.207C18.613 29.5922 18.1147 29.0938 17.5 29.0938C16.8853 29.0938 16.387 29.5922 16.387 30.207C16.387 30.8219 16.8853 31.3203 17.5 31.3203Z" fill="black"/>
<path d="M26.4041 31.3203C27.0188 31.3203 27.5172 30.8219 27.5172 30.207C27.5172 29.5922 27.0188 29.0938 26.4041 29.0938C25.7894 29.0938 25.2911 29.5922 25.2911 30.207C25.2911 30.8219 25.7894 31.3203 26.4041 31.3203Z" fill="black"/>
<path d="M21.9521 33.5469C22.5668 33.5469 23.0651 33.0484 23.0651 32.4336C23.0651 31.8187 22.5668 31.3203 21.9521 31.3203C21.3374 31.3203 20.8391 31.8187 20.8391 32.4336C20.8391 33.0484 21.3374 33.5469 21.9521 33.5469Z" fill="black"/>
</svg>
