<svg width="20" height="41" viewBox="0 0 20 41" fill="none" xmlns="http://www.w3.org/2000/svg">
<path d="M0.925278 14.489C1.04658 14.489 1.16997 14.465 1.28855 14.4142L15.5029 8.32995C15.5065 8.32847 15.5099 8.32699 15.5134 8.32539L18.8545 6.89521C19.3239 6.69428 19.5415 6.15091 19.3405 5.6815C19.1397 5.21221 18.5963 4.99452 18.1268 5.19545L16.0723 6.07485V0.924523C16.0723 0.413816 15.6585 0 15.1478 0H3.98175C3.47104 0 3.05723 0.413816 3.05723 0.924523V11.6459L0.560893 12.7144C0.0914826 12.9153 -0.126088 13.4587 0.0748411 13.9281C0.224983 14.2788 0.566317 14.489 0.925278 14.489ZM4.90639 1.84905H14.2234V6.86637L4.90639 10.8544V1.84905Z" fill="black"/>
<path d="M18.1269 14.6099L16.0724 15.4893V11.3512C16.0724 10.8405 15.6586 10.4267 15.1479 10.4267C14.6372 10.4267 14.2234 10.8405 14.2234 11.3512V16.2807L4.90639 20.2688V15.4598C4.90639 14.9491 4.49257 14.5352 3.98187 14.5352C3.47116 14.5352 3.05735 14.9491 3.05735 15.4598V21.0603L0.56101 22.1288C0.091599 22.3297 -0.125972 22.8731 0.0749575 23.3425C0.2251 23.6933 0.566311 23.9035 0.925272 23.9035C1.04657 23.9035 1.16996 23.8795 1.28855 23.8287L4.33664 22.524C4.34034 22.5224 4.34391 22.5209 4.34761 22.5193L15.5029 17.7444C15.5065 17.743 15.5099 17.7415 15.5134 17.7399L18.8545 16.3097C19.3239 16.1088 19.5415 15.5654 19.3405 15.096C19.1397 14.6266 18.5964 14.409 18.1269 14.6099Z" fill="black"/>
<path d="M18.1269 24.0243L16.0724 24.9037V20.5001C16.0724 19.9894 15.6586 19.5756 15.1479 19.5756C14.6372 19.5756 14.2234 19.9894 14.2234 20.5001V25.6952L4.90639 29.6832V24.8742C4.90639 24.3635 4.49257 23.9497 3.98187 23.9497C3.47116 23.9497 3.05735 24.3635 3.05735 24.8742V30.4748L0.56101 31.5433C0.091599 31.7442 -0.125972 32.2876 0.0749575 32.757C0.2251 33.1078 0.566311 33.318 0.925272 33.318C1.04657 33.318 1.16996 33.2939 1.28855 33.2432L3.84233 32.15L8.76744 40.5436C8.93349 40.8265 9.23686 41.0002 9.56488 41.0002C9.8929 41.0002 10.1963 40.8265 10.3623 40.5436L15.9453 31.0286C16.0285 30.8867 16.0724 30.7251 16.0724 30.5607V26.915L18.8545 25.7241C19.3239 25.5231 19.5415 24.9798 19.3405 24.5104C19.1397 24.0409 18.5964 23.8232 18.1269 24.0243ZM14.2234 30.3093L9.56488 38.2485L5.5559 31.4163L14.2234 27.7064V30.3093Z" fill="black"/>
</svg>
