<svg width="46" height="42" viewBox="0 0 46 42" fill="none" xmlns="http://www.w3.org/2000/svg">
<path d="M43.0225 0H2.97768C1.33579 0 0 1.34516 0 2.99856V26.7931C0 28.4465 1.33579 29.7917 2.97768 29.7917H6.40803C6.47331 29.8836 6.54735 29.972 6.63107 30.0563C7.07988 30.5082 7.70036 30.7279 8.52798 30.7279C8.67652 30.7279 8.82685 30.7205 8.97792 30.7091V41.0053C8.97792 41.3637 9.16935 41.6943 9.47903 41.8709C9.78852 42.0474 10.1687 42.0427 10.4739 41.8582L15.566 38.7816L20.6581 41.8583C20.8144 41.9527 20.9902 42 21.1663 42C21.334 42 21.5018 41.957 21.6529 41.8709C21.9626 41.6943 22.154 41.3637 22.154 41.0053V30.7091C22.3051 30.7206 22.4555 30.7279 22.6039 30.7279C23.4315 30.7279 24.052 30.5082 24.5006 30.0564C24.5845 29.972 24.6585 29.8836 24.7238 29.7917H43.0224C44.6643 29.7917 46 28.4465 46 26.7931V2.99856C46.0001 1.34516 44.6644 0 43.0225 0ZM16.0742 36.7687C15.7614 36.5798 15.3706 36.5797 15.0577 36.7687L10.9535 39.2487V30.4721C11.0428 30.4661 11.129 30.4626 11.2112 30.4626C11.4696 30.4626 11.6047 30.4965 11.6725 30.5248C11.9572 30.6436 12.391 31.2315 12.7395 31.7037C13.4587 32.6785 14.274 33.7833 15.566 33.7833C16.858 33.7833 17.6733 32.6785 18.3925 31.7037C18.741 31.2314 19.1748 30.6436 19.4595 30.5248C19.5273 30.4965 19.6625 30.4626 19.9208 30.4626C20.003 30.4626 20.0893 30.4662 20.1786 30.4721V39.2487L16.0742 36.7687ZM23.104 28.6497C23.1003 28.6533 23.0111 28.7386 22.6039 28.7386C22.2586 28.7386 21.8437 28.6791 21.4045 28.6161C20.915 28.5459 20.4089 28.4732 19.9207 28.4732C19.4457 28.4732 19.0472 28.5431 18.7027 28.687C17.9144 29.0162 17.3513 29.7792 16.8069 30.517C16.4545 30.9945 15.8647 31.7939 15.5659 31.7939C15.2671 31.7939 14.6773 30.9946 14.325 30.517C13.7806 29.7792 13.2175 29.0162 12.4292 28.687C12.0847 28.5431 11.6863 28.4732 11.2112 28.4732C10.7231 28.4732 10.2169 28.5459 9.72747 28.6161C9.28835 28.6791 8.8735 28.7386 8.52808 28.7386C8.12094 28.7386 8.03158 28.6533 8.028 28.6497C7.84542 28.4658 7.98596 27.4723 8.0614 26.9386C8.19338 26.0055 8.32987 25.0408 7.99094 24.2176C7.66405 23.4238 6.90632 22.8568 6.1737 22.3085C5.6994 21.9537 4.90574 21.3597 4.90574 21.059C4.90574 20.7582 5.6994 20.1643 6.17361 19.8094C6.90632 19.2611 7.66405 18.6941 7.99094 17.9003C8.32997 17.0772 8.19347 16.1124 8.06149 15.1794C7.98595 14.6456 7.84551 13.6521 8.02819 13.4681C8.03177 13.4644 8.12104 13.3793 8.52808 13.3793C8.87331 13.3793 9.28816 13.4388 9.72728 13.5018C10.2168 13.5719 10.723 13.6446 11.2112 13.6446C11.6863 13.6446 12.0848 13.5747 12.4293 13.4308C13.2176 13.1016 13.7807 12.3387 14.3251 11.6008C14.6775 11.1233 15.2673 10.3241 15.566 10.3241C15.8648 10.3241 16.4546 11.1233 16.807 11.6008C17.3514 12.3387 17.9144 13.1016 18.7028 13.4308C19.0473 13.5747 19.4457 13.6446 19.9209 13.6446C20.409 13.6446 20.9151 13.572 21.4046 13.5018C21.8437 13.4389 22.2586 13.3794 22.6039 13.3794C23.0111 13.3794 23.1004 13.4646 23.104 13.4683C23.2867 13.6523 23.1461 14.6458 23.0707 15.1795C22.9387 16.1125 22.8022 17.0771 23.1412 17.9003C23.4681 18.6941 24.2258 19.2612 24.9585 19.8095C25.4327 20.1643 26.2265 20.7583 26.2265 21.0591C26.2265 21.3598 25.4327 21.9538 24.9585 22.3086C24.2258 22.8569 23.468 23.4239 23.1412 24.2178C22.8022 25.0409 22.9387 26.0056 23.0706 26.9385C23.1461 27.4721 23.2867 28.4657 23.104 28.6497ZM44.0246 26.7931C44.0246 27.3497 43.5751 27.8024 43.0225 27.8024H25.1564C25.1338 27.4179 25.0791 27.03 25.0264 26.6579C24.9408 26.0527 24.8342 25.2996 24.9659 24.9797C25.084 24.6931 25.6677 24.2563 26.1367 23.9053C27.1047 23.1809 28.2018 22.36 28.2018 21.059C28.2018 19.758 27.1047 18.9369 26.1367 18.2126C25.6677 17.8617 25.084 17.4249 24.9659 17.1383C24.8342 16.8184 24.9408 16.0652 25.0264 15.4601C25.1929 14.2828 25.3816 12.9485 24.5009 12.0616C24.0521 11.6096 23.4316 11.39 22.6039 11.39C22.1186 11.39 21.614 11.4623 21.1261 11.5323C20.6853 11.5955 20.269 11.6552 19.9209 11.6552C19.6625 11.6552 19.5274 11.6215 19.4595 11.5931C19.1748 11.4743 18.741 10.8864 18.3925 10.4142C17.6733 9.43939 16.858 8.33456 15.566 8.33456C14.274 8.33456 13.4587 9.43939 12.7395 10.4142C12.391 10.8865 11.9573 11.4743 11.6726 11.5931C11.6047 11.6214 11.4696 11.6552 11.2112 11.6552C10.8631 11.6552 10.4466 11.5955 10.0059 11.5322C9.51788 11.4622 9.01338 11.3899 8.52808 11.3899C7.70045 11.3899 7.07997 11.6095 6.63126 12.0613C5.75048 12.9483 5.93919 14.2826 6.10578 15.4598C6.19139 16.065 6.29787 16.8181 6.16618 17.1381C6.04812 17.4248 5.46442 17.8616 4.99538 18.2125C4.02741 18.9368 2.93027 19.7579 2.93027 21.0589C2.93027 22.3599 4.02741 23.1809 4.99538 23.9052C5.46442 24.2562 6.04812 24.693 6.16608 24.9795C6.29787 25.2994 6.19129 26.0527 6.10569 26.6579C6.05301 27.03 5.99826 27.4179 5.97569 27.8023H2.97768C2.42502 27.8023 1.97546 27.3496 1.97546 26.793V2.99856C1.97546 2.44202 2.42502 1.98931 2.97768 1.98931H43.0225C43.5751 1.98931 44.0246 2.44202 44.0246 2.99856V26.7931Z" fill="black"/>
<path d="M39.9799 9.55194H31.6223C31.0768 9.55194 30.6346 9.99726 30.6346 10.5466C30.6346 11.0959 31.0768 11.5413 31.6223 11.5413H39.9799C40.5254 11.5413 40.9677 11.0959 40.9677 10.5466C40.9677 9.99726 40.5254 9.55194 39.9799 9.55194Z" fill="black"/>
<path d="M39.9799 16.1653H31.6223C31.0768 16.1653 30.6346 16.6107 30.6346 17.16C30.6346 17.7093 31.0768 18.1547 31.6223 18.1547H39.9799C40.5254 18.1547 40.9677 17.7093 40.9677 17.16C40.9677 16.6107 40.5254 16.1653 39.9799 16.1653Z" fill="black"/>
</svg>
